<?xml version="1.0" standalone="no"?>
<!DOCTYPE svg PUBLIC "-//W3C//DTD SVG 20010904//EN"
 "http://www.w3.org/TR/2001/REC-SVG-20010904/DTD/svg10.dtd">
<svg version="1.0" xmlns="http://www.w3.org/2000/svg"
 width="280.000000pt" height="280.000000pt" viewBox="0 0 280.000000 280.000000"
 preserveAspectRatio="xMidYMid meet">
<metadata>
Created by potrace 1.11, written by Peter Selinger 2001-2013
</metadata>
<g transform="translate(0.000000,280.000000) scale(0.100000,-0.100000)"
fill="#000000" stroke="none">
<path d="M990 1666 l0 -696 298 0 c235 0 310 3 357 15 120 32 205 99 262 207
26 49 28 62 28 163 0 101 -2 114 -28 163 -33 63 -92 122 -148 150 l-41 20 29
15 c48 25 109 100 133 163 19 50 21 72 17 143 -4 69 -11 95 -38 149 -40 78
-108 138 -196 173 -56 23 -71 24 -365 27 l-308 3 0 -695z m555 455 c75 -34
113 -104 101 -185 -9 -59 -38 -102 -88 -128 -37 -19 -61 -23 -180 -26 l-138
-4 0 181 0 181 133 0 c107 0 140 -4 172 -19z m62 -593 c79 -52 103 -176 50
-256 -43 -66 -79 -77 -259 -80 l-158 -3 0 186 0 186 163 -3 c158 -3 165 -4
204 -30z"/>
<path d="M0 1565 l0 -170 700 -700 700 -700 700 705 699 705 0 158 c1 86 -2
157 -6 157 -5 0 -320 -312 -700 -692 l-693 -693 -700 700 -700 700 0 -170z"/>
</g>
</svg>
