<?xml version="1.0" encoding="utf-8"?>
<!-- Generator: Adobe Illustrator 23.0.3, SVG Export Plug-In . SVG Version: 6.00 Build 0)  -->
<svg version="1.1" id="レイヤー_1" xmlns="http://www.w3.org/2000/svg" xmlns:xlink="http://www.w3.org/1999/xlink" x="0px"
	 y="0px" viewBox="0 0 160 16" style="enable-background:new 0 0 160 16;" xml:space="preserve">
<g id="logotype_x5F_bv2019_1_">
	<g id="bit_valley_2019_2_">
		<path d="M5.5,0.7c2.9,0,4.6,1.7,4.6,3.9c0,1.5-1,2.7-2.1,3.1c1.3,0.3,2.6,1.5,2.6,3.4c0,2.4-1.8,4.2-4.6,4.2H0V0.7H5.5z M5,6.5
			c1.1,0,1.9-0.6,1.9-1.6c0-1-0.6-1.6-1.9-1.6H3.2v3.2H5z M5.2,12.6c1.3,0,2-0.7,2-1.7c0-1-0.7-1.7-2-1.7h-2v3.4H5.2z"/>
		<path d="M12.3,15.3V0.7h3.3v14.7H12.3z"/>
		<path d="M25,3.8v11.5h-3.3V3.8h-4.5V0.7h12.3v3.1H25z"/>
		<path d="M45.8,0.7h3.5l-5.4,14.7h-3.4L35.2,0.7h3.6L42.3,11L45.8,0.7z"/>
		<path d="M57.5,12.3h-5.7l-1.1,3h-3.4l5.5-14.7h3.8l5.5,14.7h-3.6L57.5,12.3z M52.9,9.4h3.6l-1.8-5.1L52.9,9.4z"/>
		<path d="M63.4,15.3V0.7h3.3v11.5H73v3.1H63.4z"/>
		<path d="M74.7,15.3V0.7H78v11.5h6.3v3.1H74.7z"/>
		<path d="M86,15.3V0.7h9.3v3.1h-6v2.8h5.5v2.9h-5.5v2.8h6v3.1H86z"/>
		<path d="M96.3,0.7h3.8l3,5.4l3-5.4h3.6l-5.1,8.5v6.1h-3.3V9.2L96.3,0.7z"/>
		<path d="M125.7,15.3h-10.9l0-0.1c0-2.9,1.1-4.8,3.5-6.3l2.4-1.4c1.2-0.7,1.6-1.4,1.6-2.4c0-0.9-0.6-1.8-2-1.8
			c-1.3,0-2.2,0.8-2.2,2.3c0,0.2,0,0.5,0.1,0.8l0,0.2l-3.2-0.1l0-0.1c0-0.2-0.1-0.7-0.1-1c0-3.2,2.7-4.9,5.4-4.9
			c3.1,0,5.3,2,5.3,4.8c0,1.8-1,3.4-2.9,4.6l-2.8,1.7c-0.6,0.4-0.9,0.7-1.1,1.1h6.8V15.3z"/>
		<path d="M133.2,15.7c-2.6,0-4.1-1.3-4.9-2.5c-0.9-1.3-1.3-3-1.3-5.2c0-2.2,0.4-3.9,1.3-5.2l0,0c0.8-1.1,2.2-2.5,4.9-2.5
			c2.7,0,4.1,1.3,4.8,2.5c0.9,1.3,1.3,3,1.3,5.2s-0.4,3.9-1.3,5.2C137.3,14.3,135.8,15.7,133.2,15.7z M133.2,3.3
			c-0.9,0-1.6,0.4-2.1,1.1c-0.5,0.8-0.8,2-0.8,3.6c0,1.6,0.3,2.8,0.8,3.6l0,0c0.5,0.7,1.2,1.1,2.1,1.1c0.9,0,1.6-0.4,2-1.1
			c0.5-0.8,0.8-2,0.8-3.6c0-1.6-0.3-2.8-0.8-3.6C134.8,3.7,134.1,3.3,133.2,3.3z"/>
		<path d="M146.9,15.3h-3.3V5.7h-3.5V3.4l0.1,0c1.9,0,3.4-1.1,3.7-2.6l0-0.1h2.9V15.3z"/>
		<path d="M152.4,15.6c-1.2,0-2.6-0.3-3.4-0.8l-0.1-0.1l0.8-2.7l0.1,0.1c0.5,0.3,1.6,0.6,2.5,0.6c2.5,0,4-1.3,4.4-3.5
			c-0.7,0.8-1.9,1.2-3.1,1.2c-3,0-5.1-2.1-5.1-5c0-3,2.4-5.2,5.7-5.2c3.6,0,5.9,2.7,5.9,6.9C160,12.7,157.3,15.6,152.4,15.6z
			 M154,3.2c-1.3,0-2.3,1-2.3,2.2c0,1.3,1,2.2,2.3,2.2c1.3,0,2.4-1,2.4-2.2S155.4,3.2,154,3.2z"/>
	</g>
</g>
</svg>
