<?xml version="1.0" encoding="utf-8"?>
<!-- Generator: Adobe Illustrator 23.0.3, SVG Export Plug-In . SVG Version: 6.00 Build 0)  -->
<svg version="1.1" id="レイヤー_1" xmlns="http://www.w3.org/2000/svg" xmlns:xlink="http://www.w3.org/1999/xlink" x="0px"
	 y="0px" viewBox="0 0 360 52" style="enable-background:new 0 0 360 52;" xml:space="preserve">
<style type="text/css">
	.st0{fill:#FFFFFF;}
</style>
<g id="logo_x5F_bv2019_x5F_horizontal_x5F_black">
	<g id="logotype_x5F_bv2019_3_">
		<g id="bit_valley_2019_5_">
			<path class="st0" d="M105,14c4.8,0,7.5,2.8,7.5,6.5c0,2.5-1.6,4.5-3.5,5.2c2.2,0.5,4.3,2.5,4.3,5.7c0,4-3,6.9-7.6,6.9H96V14H105z
				 M104.1,23.7c1.9,0,3.1-1,3.1-2.6c0-1.6-1.1-2.6-3.2-2.6h-2.9v5.2H104.1z M104.6,33.8c2.1,0,3.3-1.1,3.3-2.8
				c0-1.7-1.2-2.8-3.3-2.8h-3.4v5.7H104.6z"/>
			<path class="st0" d="M116.3,38.2V14h5.5v24.2H116.3z"/>
			<path class="st0" d="M137.2,19.1v19h-5.4v-19h-7.4V14h20.3v5.2H137.2z"/>
			<path class="st0" d="M171.5,14h5.7l-8.8,24.2h-5.6L154,14h5.9l5.8,17L171.5,14z"/>
			<path class="st0" d="M190.8,33.2h-9.3l-1.7,4.9H174l9.1-24.2h6.2l9,24.2h-5.9L190.8,33.2z M183.2,28.3h5.9l-2.9-8.4L183.2,28.3z"
				/>
			<path class="st0" d="M200.7,38.2V14h5.4v19h10.4v5.2H200.7z"/>
			<path class="st0" d="M219.3,38.2V14h5.4v19h10.4v5.2H219.3z"/>
			<path class="st0" d="M237.9,38.2V14h15.3v5.1h-9.9v4.6h9v4.7h-9V33h10v5.1H237.9z"/>
			<path class="st0" d="M254.8,14h6.3l4.9,9l5-9h6l-8.5,14.1v10.1h-5.4V28.1L254.8,14z"/>
			<path class="st0" d="M303.4,38.2h-18l0-0.2c0-4.8,1.8-8,5.7-10.3l3.9-2.3c1.9-1.1,2.7-2.3,2.7-3.9c0-1.5-1-3-3.4-3
				c-2.2,0-3.6,1.4-3.6,3.7c0,0.4,0.1,0.9,0.2,1.3l0.1,0.3l-5.3-0.2l0-0.2c-0.1-0.3-0.2-1.1-0.2-1.7c0-5.4,4.5-8.2,8.9-8.2
				c5.1,0,8.8,3.3,8.8,7.9c0,3-1.6,5.7-4.7,7.5l-4.6,2.8c-0.9,0.6-1.5,1.1-1.8,1.8h11.3V38.2z"/>
			<path class="st0" d="M315.8,38.7c-4.4,0-6.8-2.2-8-4.1c-1.4-2.2-2.1-5-2.1-8.6c0-3.6,0.7-6.4,2.1-8.6l0,0c1.3-1.9,3.7-4.1,8-4.1
				c4.4,0,6.8,2.2,8,4.1c1.5,2.2,2.2,5,2.2,8.6s-0.7,6.4-2.2,8.6C322.5,36.5,320.1,38.7,315.8,38.7z M315.8,18.3
				c-1.5,0-2.6,0.6-3.4,1.8c-0.8,1.3-1.2,3.3-1.2,5.9c0,2.6,0.4,4.6,1.2,5.9l0,0c0.8,1.2,1.9,1.8,3.4,1.8c1.5,0,2.6-0.6,3.4-1.8
				c0.9-1.3,1.3-3.3,1.3-5.9c0-2.7-0.4-4.6-1.3-5.9C318.3,18.9,317.3,18.3,315.8,18.3z"/>
			<path class="st0" d="M338.3,38.2h-5.4V22.3h-5.7v-3.8l0.2,0c3.2,0,5.7-1.8,6.2-4.3l0-0.2h4.8V38.2z"/>
			<path class="st0" d="M347.4,38.7c-2,0-4.3-0.6-5.6-1.3l-0.1-0.1l1.4-4.5l0.2,0.1c0.9,0.5,2.6,1,4.1,1c4.1,0,6.7-2.1,7.2-5.8
				c-1.2,1.3-3.1,2-5.2,2c-4.9,0-8.4-3.4-8.4-8.2c0-5,3.9-8.6,9.3-8.6c5.9,0,9.7,4.5,9.7,11.5C360,33.8,355.5,38.7,347.4,38.7z
				 M350.1,18.1c-2.2,0-3.8,1.6-3.8,3.7c0,2.1,1.6,3.7,3.8,3.7c2.2,0,3.9-1.6,3.9-3.7S352.3,18.1,350.1,18.1z"/>
		</g>
	</g>
	<g id="graphic_1_">
		<g>
			<g>
				<path class="st0" d="M48.5,30.5h-11V1h10.2c5.5,0,9.1,3.2,9.1,8.1c0,2.8-1.5,5.2-3.9,6.3c2.9,1,4.8,3.7,4.8,7
					C57.8,27.1,54,30.5,48.5,30.5z M42.8,25.9h4.8c2.9,0,4.7-1.5,4.7-4c0-2.5-1.7-4.1-4.5-4.1h-5V25.9z M42.8,13.3h4.3
					c2.7,0,4.4-1.5,4.4-3.9c0-2.4-1.7-3.9-4.5-3.9h-4.1V13.3z"/>
			</g>
		</g>
		<polygon class="st0" points="46.2,51 0,4.8 3.5,1.3 46.2,44 88.9,1.3 92.5,4.8 		"/>
	</g>
</g>
</svg>
