<?xml version="1.0" encoding="utf-8"?>
<!-- Generator: Adobe Illustrator 23.0.3, SVG Export Plug-In . SVG Version: 6.00 Build 0)  -->
<svg version="1.1" id="レイヤー_1" xmlns="http://www.w3.org/2000/svg" xmlns:xlink="http://www.w3.org/1999/xlink" x="0px"
	 y="0px" viewBox="0 0 18 18" style="enable-background:new 0 0 18 18;" xml:space="preserve">
<style type="text/css">
	.st0{fill:#999999;}
</style>
<path id="パス_22018" class="st0" d="M0.4,14.4c1.4,0.2,2.9-0.1,4.2-0.8c0.4-0.2,0.7-0.4,1-0.7c-0.9,0-1.8-0.4-2.5-1.1
	c-0.4-0.4-0.6-0.8-0.8-1.3c0.2,0,0.5,0,0.7,0c0.3,0,0.5,0,0.7-0.1c-0.1,0-0.2-0.1-0.4-0.1c-0.1,0-0.2-0.1-0.4-0.1
	C3,10.1,2.9,10,2.8,10C2.6,9.9,2.5,9.8,2.4,9.7C2.2,9.6,2,9.4,1.9,9.2C1.8,9.1,1.7,9,1.6,8.8c0-0.1-0.1-0.2-0.2-0.3
	c0-0.1-0.1-0.2-0.1-0.4c0-0.1-0.1-0.3-0.1-0.4s0-0.3-0.1-0.4c0-0.1,0-0.3,0-0.4c0.5,0.3,1,0.4,1.5,0.4C1.8,6.8,1.3,5.9,1.1,4.9
	C1,4.1,1.2,3.3,1.6,2.7C2,3.1,2.3,3.5,2.8,3.9c0.4,0.4,0.9,0.7,1.3,1c0.5,0.3,1,0.5,1.5,0.8C6.1,5.8,6.7,6,7.2,6.1
	c0.6,0.1,1.1,0.2,1.7,0.2c0-0.1,0-0.2,0-0.3c-0.1-0.7,0-1.4,0.3-2c0.2-0.5,0.5-0.9,0.9-1.2c1.1-0.9,2.7-1.1,4-0.3
	c0.3,0.1,0.5,0.3,0.7,0.5C14.9,3.1,15,3.1,15,3.1c0.6-0.1,1.1-0.3,1.7-0.6c0.1-0.1,0.3-0.1,0.4-0.2C17,2.7,16.8,3,16.6,3.4
	C16.4,3.7,16,4,15.7,4.2c0.3,0,0.7,0,1-0.2c0.3-0.1,0.6-0.2,1-0.3c0,0,0,0.1-0.1,0.1c-0.3,0.4-0.6,0.8-1,1.2
	c-0.2,0.2-0.4,0.3-0.5,0.4S16,5.6,16,5.7c0,0.5,0,1-0.1,1.4c0,0.4-0.1,0.7-0.2,1.1c-0.1,0.4-0.2,0.9-0.4,1.3
	c-0.1,0.4-0.3,0.8-0.5,1.2s-0.5,0.8-0.7,1.2s-0.5,0.7-0.8,1s-0.5,0.5-0.8,0.8c-0.2,0.2-0.4,0.4-0.7,0.5c-0.3,0.2-0.7,0.5-1,0.7
	c-0.4,0.2-0.8,0.4-1.2,0.5c-0.3,0.1-0.6,0.2-0.9,0.3C7.7,15.9,6.8,16,6,16c-0.7,0-1.4,0-2-0.2c-0.5-0.1-1-0.2-1.4-0.4
	C2.3,15.3,2,15.2,1.7,15C1.2,14.9,0.8,14.7,0.4,14.4z"/>
</svg>
