<?xml version="1.0" encoding="utf-8"?>
<!-- Generator: Adobe Illustrator 23.0.4, SVG Export Plug-In . SVG Version: 6.00 Build 0)  -->
<svg version="1.1" id="レイヤー_1" xmlns="http://www.w3.org/2000/svg" xmlns:xlink="http://www.w3.org/1999/xlink" x="0px"
	 y="0px" viewBox="0 0 60 60" style="enable-background:new 0 0 60 60;" xml:space="preserve">
<style type="text/css">
	.st0{fill:#FFFFFF;}
</style>
<polygon points="0,60 60,60 60,0 "/>
<path id="icon_search" class="st0" d="M51,49.3l-4.5-4.5c0.7-1,1.2-2.2,1.2-3.4c0-3.2-2.6-5.8-5.9-5.9c-3.1,0-5.8,2.5-5.8,5.7v0.1
	c0,3.2,2.6,5.8,5.9,5.9c1.2,0,2.4-0.4,3.4-1.2l4.5,4.5L51,49.3z M37.2,41.4c0-2.6,2.1-4.7,4.7-4.7c2.6,0,4.6,2.1,4.6,4.7
	c0,2.6-2.1,4.6-4.6,4.6l0,0C39.3,46,37.2,43.9,37.2,41.4z"/>
</svg>
